<?xml version="1.0" encoding="UTF-8" standalone="no"?><!DOCTYPE svg PUBLIC "-//W3C//DTD SVG 1.1//EN" "http://www.w3.org/Graphics/SVG/1.1/DTD/svg11.dtd"><svg width="100%" height="100%" viewBox="0 0 44 44" version="1.1" xmlns="http://www.w3.org/2000/svg" xmlns:xlink="http://www.w3.org/1999/xlink" xml:space="preserve" xmlns:serif="http://www.serif.com/" style="fill-rule:evenodd;clip-rule:evenodd;stroke-linejoin:round;stroke-miterlimit:1.41421;"><path d="M35.143,0c4.849,0 8.786,3.937 8.786,8.786l0,26.357c0,4.849 -3.937,8.786 -8.786,8.786l-26.357,0c-4.849,0 -8.786,-3.937 -8.786,-8.786l0,-26.357c0,-4.849 3.937,-8.786 8.786,-8.786l26.357,0Zm-0.432,6.962l-25.494,0c-1.245,0 -2.255,1.01 -2.255,2.255l0,25.494c0,1.245 1.01,2.256 2.255,2.256l25.494,0c1.245,0 2.256,-1.011 2.256,-2.256l0,-25.494c0,-1.245 -1.011,-2.255 -2.256,-2.255Z" style="fill:#ec3d2f;"/></svg>