<?xml version="1.0" encoding="UTF-8" standalone="no"?>
<!DOCTYPE svg PUBLIC "-//W3C//DTD SVG 1.1//EN" "http://www.w3.org/Graphics/SVG/1.1/DTD/svg11.dtd">
<svg width="100%" height="100%" viewBox="0 0 241 252" version="1.1" xmlns="http://www.w3.org/2000/svg" xmlns:xlink="http://www.w3.org/1999/xlink" xml:space="preserve" xmlns:serif="http://www.serif.com/" style="fill-rule:evenodd;clip-rule:evenodd;stroke-linejoin:round;stroke-miterlimit:1.41421;">
    <g id="Logo" transform="matrix(3.79136,0,0,3.79136,-2556.99,-1305.81)">
        <rect x="674.425" y="344.416" width="63.351" height="66.346" style="fill:rgb(31,37,51);fill-opacity:0;"/>
        <g id="logo_web-040e86085e8a64847b9a2c10a1875531ebf90a5d9d986cbd080de99c444a48ed" transform="matrix(1,0,0,1,883.459,380.09)">
            <g transform="matrix(1,0,0,1,-199.03,-41.63)">
                <g id="Layer_1-2">
                    <path d="M22.08,54.64L18.94,50.64L19.64,40.35L7.07,32.13L7.59,38.24L13.59,44.87L11.38,61.94C7.34,58.53 6,57.83 0,55.75C2,47.38 1,46.55 1.84,36.17C2.38,20.82 13.36,12.33 22.08,12.07" style="fill:rgb(234,63,48);fill-rule:nonzero;"/>
                    <path d="M21.93,54.64L25.07,50.64L24.37,40.35L36.93,32.15L36.41,38.26L30.41,44.89L32.59,61.96C36.59,58.54 38,57.85 43.97,55.77C41.97,47.4 42.97,46.57 42.13,36.19C41.59,20.84 30.61,12.35 21.89,12.09" style="fill:white;fill-rule:nonzero;"/>
                </g>
            </g>
        </g>
    </g>
</svg>
