<?xml version="1.0" encoding="UTF-8" standalone="no"?>
<!DOCTYPE svg PUBLIC "-//W3C//DTD SVG 1.1//EN" "http://www.w3.org/Graphics/SVG/1.1/DTD/svg11.dtd">
<svg width="100%" height="100%" viewBox="0 0 1032 273" version="1.1" xmlns="http://www.w3.org/2000/svg" xmlns:xlink="http://www.w3.org/1999/xlink" xml:space="preserve" xmlns:serif="http://www.serif.com/" style="fill-rule:evenodd;clip-rule:evenodd;stroke-linejoin:round;stroke-miterlimit:1.41421;">
    <g id="Mid-Zeug" serif:id="Mid Zeug" transform="matrix(1,0,0,1,-394.632,-266.517)">
        <g id="Logo-Text" serif:id="Logo Text" transform="matrix(1.71629,0,0,1.71629,-653.132,-137.096)">
            <rect x="764.322" y="285.064" width="351.143" height="76.224" style="fill:rgb(31,37,51);fill-opacity:0;"/>
            <clipPath id="_clip1">
                <rect x="764.322" y="285.064" width="351.143" height="76.224"/>
            </clipPath>
            <g clip-path="url(#_clip1)">
                <g id="logo_web-040e86085e8a64847b9a2c10a1875531ebf90a5d9d986cbd080de99c444a48ed" transform="matrix(1,0,0,1,910.911,326.694)">
                    <g transform="matrix(1,0,0,1,-199.03,-41.63)">
                        <clipPath id="_clip2">
                            <rect x="0" y="0" width="398.06" height="83.26"/>
                        </clipPath>
                        <g clip-path="url(#_clip2)">
                            <g id="Layer_1-2">
                                <path d="M22.08,54.64L18.94,50.64L19.64,40.35L7.07,32.13L7.59,38.24L13.59,44.87L11.38,61.94C7.34,58.53 6,57.83 0,55.75C2,47.38 1,46.55 1.84,36.17C2.38,20.82 13.36,12.33 22.08,12.07" style="fill:rgb(234,63,48);fill-rule:nonzero;"/>
                                <path d="M21.93,54.64L25.07,50.64L24.37,40.35L36.93,32.15L36.41,38.26L30.41,44.89L32.59,61.96C36.59,58.54 38,57.85 43.97,55.77C41.97,47.4 42.97,46.57 42.13,36.19C41.59,20.84 30.61,12.35 21.89,12.09" style="fill:white;fill-rule:nonzero;"/>
                                <path d="M89.4,11.58C94.873,11.58 98.76,12.78 101.06,15.18C102.804,17.049 103.736,19.535 103.65,22.09C103.642,23.097 103.545,24.101 103.36,25.09L102.71,28.55C102.361,30.956 101.298,33.203 99.66,35C98.147,36.533 96.813,37.3 95.66,37.3L95.59,37.88C97.207,38.02 98.694,38.829 99.69,40.11C101.052,41.519 101.804,43.411 101.78,45.37C101.773,46.241 101.676,47.109 101.49,47.96L101.06,50.19C100.476,53.994 98.514,57.455 95.55,59.91C92.643,62.263 88.6,63.44 83.42,63.44L59.42,63.44L68.56,11.6L89.4,11.58ZM82.92,42.26L76.08,42.26L74.35,52.2L81.48,52.2C83.359,52.301 85.216,51.754 86.74,50.65C87.953,49.774 88.676,48.367 88.68,46.87C88.68,43.797 86.76,42.26 82.92,42.26ZM84.86,22.82L79.46,22.82L77.59,33.54L82.92,33.54C87.527,33.54 89.83,31.54 89.83,27.54C89.882,26.29 89.427,25.071 88.57,24.16C87.57,23.224 86.227,22.739 84.86,22.82Z" style="fill:white;fill-rule:nonzero;"/>
                                <path d="M136.7,11.58C142.173,11.58 146.06,12.78 148.36,15.18C150.125,17.043 151.075,19.535 151,22.1C150.992,23.107 150.895,24.111 150.71,25.1L149.71,30.72C149.294,33.434 148.269,36.019 146.71,38.28C145.508,40.025 143.889,41.441 142,42.4L148.55,63.4L134,63.4L128,44.03L123.54,44.03L120.54,63.4L106.68,63.4L115.82,11.56L136.7,11.58ZM132.16,22.81L126.76,22.81L124.9,35.34L129.9,35.34C132.447,35.34 134.27,34.727 135.37,33.5C136.519,32.149 137.112,30.411 137.03,28.64C137.05,24.76 135.43,22.82 132.17,22.82L132.16,22.81Z" style="fill:white;fill-rule:nonzero;"/>
                                <path d="M179.54,63.42L179.97,52.12L168,52.12L164.47,63.42L150.67,63.42L169.17,11.58L192.93,11.58L193.22,63.42L179.54,63.42ZM176.54,24.18L170.9,42.47L180.33,42.47L181.12,24.18L176.54,24.18Z" style="fill:white;fill-rule:nonzero;"/>
                                <path d="M245.78,11.58L244.56,50.82L246.22,50.82L258.75,11.58L272.86,11.58L255.07,63.42L233.47,63.42L235.41,30.23L225.76,63.42L204.16,63.42L204.66,11.58L218.77,11.58L217.47,50.82L219.13,50.82L231.73,11.58L245.78,11.58Z" style="fill:white;fill-rule:nonzero;"/>
                                <path d="M303.6,63.42L270.77,63.42L279.91,11.58L292.91,11.58L285.78,52.19L305.65,52.19L303.6,63.42Z" style="fill:white;fill-rule:nonzero;"/>
                                <path d="M345.5,63.42L309.36,63.42L318.5,11.58L354.64,11.58L352.64,22.81L329.45,22.81L327.79,32.53L346.94,32.53L344.94,43.76L325.78,43.76L324.34,52.18L347.52,52.18L345.5,63.42Z" style="fill:white;fill-rule:nonzero;"/>
                                <path d="M383.81,11.58C389.283,11.58 393.17,12.78 395.47,15.18C397.214,17.049 398.146,19.535 398.06,22.09C398.052,23.097 397.955,24.101 397.77,25.09L396.77,30.71C396.355,33.424 395.329,36.009 393.77,38.27C392.562,40.008 390.94,41.417 389.05,42.37L395.6,63.37L381.07,63.37L375.07,44L370.61,44L367.61,63.37L353.78,63.37L362.92,11.53L383.81,11.58ZM379.27,22.81L373.87,22.81L372,35.34L377,35.34C379.547,35.34 381.37,34.727 382.47,33.5C383.619,32.149 384.212,30.411 384.13,28.64C384.157,24.76 382.537,22.82 379.27,22.82L379.27,22.81Z" style="fill:white;fill-rule:nonzero;"/>
                            </g>
                        </g>
                    </g>
                </g>
            </g>
        </g>
        <g id="Logo" transform="matrix(3.79136,0,0,3.79136,-2124.78,-1039.29)">
            <rect x="674.425" y="344.416" width="63.351" height="66.346" style="fill:rgb(31,37,51);fill-opacity:0;"/>
            <clipPath id="_clip3">
                <rect x="674.425" y="344.416" width="63.351" height="66.346"/>
            </clipPath>
            <g clip-path="url(#_clip3)">
                <g id="logo_web-040e86085e8a64847b9a2c10a1875531ebf90a5d9d986cbd080de99c444a48ed1" serif:id="logo_web-040e86085e8a64847b9a2c10a1875531ebf90a5d9d986cbd080de99c444a48ed" transform="matrix(1,0,0,1,883.459,380.09)">
                    <g transform="matrix(1,0,0,1,-199.03,-41.63)">
                        <g id="Layer_1-21" serif:id="Layer_1-2">
                            <path d="M22.08,54.64L18.94,50.64L19.64,40.35L7.07,32.13L7.59,38.24L13.59,44.87L11.38,61.94C7.34,58.53 6,57.83 0,55.75C2,47.38 1,46.55 1.84,36.17C2.38,20.82 13.36,12.33 22.08,12.07" style="fill:rgb(234,63,48);fill-rule:nonzero;"/>
                            <path d="M21.93,54.64L25.07,50.64L24.37,40.35L36.93,32.15L36.41,38.26L30.41,44.89L32.59,61.96C36.59,58.54 38,57.85 43.97,55.77C41.97,47.4 42.97,46.57 42.13,36.19C41.59,20.84 30.61,12.35 21.89,12.09" style="fill:white;fill-rule:nonzero;"/>
                            <path d="M89.4,11.58C94.873,11.58 98.76,12.78 101.06,15.18C102.804,17.049 103.736,19.535 103.65,22.09C103.642,23.097 103.545,24.101 103.36,25.09L102.71,28.55C102.361,30.956 101.298,33.203 99.66,35C98.147,36.533 96.813,37.3 95.66,37.3L95.59,37.88C97.207,38.02 98.694,38.829 99.69,40.11C101.052,41.519 101.804,43.411 101.78,45.37C101.773,46.241 101.676,47.109 101.49,47.96L101.06,50.19C100.476,53.994 98.514,57.455 95.55,59.91C92.643,62.263 88.6,63.44 83.42,63.44L59.42,63.44L68.56,11.6L89.4,11.58ZM82.92,42.26L76.08,42.26L74.35,52.2L81.48,52.2C83.359,52.301 85.216,51.754 86.74,50.65C87.953,49.774 88.676,48.367 88.68,46.87C88.68,43.797 86.76,42.26 82.92,42.26ZM84.86,22.82L79.46,22.82L77.59,33.54L82.92,33.54C87.527,33.54 89.83,31.54 89.83,27.54C89.882,26.29 89.427,25.071 88.57,24.16C87.57,23.224 86.227,22.739 84.86,22.82Z" style="fill:white;fill-rule:nonzero;"/>
                            <path d="M136.7,11.58C142.173,11.58 146.06,12.78 148.36,15.18C150.125,17.043 151.075,19.535 151,22.1C150.992,23.107 150.895,24.111 150.71,25.1L149.71,30.72C149.294,33.434 148.269,36.019 146.71,38.28C145.508,40.025 143.889,41.441 142,42.4L148.55,63.4L134,63.4L128,44.03L123.54,44.03L120.54,63.4L106.68,63.4L115.82,11.56L136.7,11.58ZM132.16,22.81L126.76,22.81L124.9,35.34L129.9,35.34C132.447,35.34 134.27,34.727 135.37,33.5C136.519,32.149 137.112,30.411 137.03,28.64C137.05,24.76 135.43,22.82 132.17,22.82L132.16,22.81Z" style="fill:white;fill-rule:nonzero;"/>
                            <path d="M179.54,63.42L179.97,52.12L168,52.12L164.47,63.42L150.67,63.42L169.17,11.58L192.93,11.58L193.22,63.42L179.54,63.42ZM176.54,24.18L170.9,42.47L180.33,42.47L181.12,24.18L176.54,24.18Z" style="fill:white;fill-rule:nonzero;"/>
                            <path d="M245.78,11.58L244.56,50.82L246.22,50.82L258.75,11.58L272.86,11.58L255.07,63.42L233.47,63.42L235.41,30.23L225.76,63.42L204.16,63.42L204.66,11.58L218.77,11.58L217.47,50.82L219.13,50.82L231.73,11.58L245.78,11.58Z" style="fill:white;fill-rule:nonzero;"/>
                        </g>
                    </g>
                </g>
            </g>
        </g>
        <g transform="matrix(1,0,0,1,-15.6868,-0.458283)">
            <text x="658.668px" y="352.158px" style="font-family:'Calibri', sans-serif;font-size:49.398px;fill:rgb(129,130,139);">W<tspan x="700.806px 725.384px 736.721px 757.199px 783.248px " y="352.158px 352.158px 352.158px 352.158px 352.158px ">elcom</tspan>e t<tspan x="874.519px " y="352.158px ">o</tspan></text>
        </g>
        <g transform="matrix(1,0,0,1,-265.749,178.383)">
            <text x="658.668px" y="352.158px" style="font-family:'Calibri', sans-serif;font-size:49.398px;fill:rgb(129,130,139);">Self<tspan x="731.028px 746.152px " y="352.158px 352.158px ">-h</tspan>os<tspan x="816.92px 832.936px 857.514px " y="352.158px 352.158px 352.158px ">ted</tspan> videog<tspan x="1027.2px 1050.86px " y="352.158px 352.158px ">am</tspan>e t<tspan x="1142.13px 1168.18px " y="352.158px 352.158px ">ou</tspan>rnamen<tspan x="1350.51px 1367.05px " y="352.158px 352.158px ">ts</tspan> and challang<tspan x="1649.91px 1674.49px " y="352.158px 352.158px ">es</tspan></text>
        </g>
    </g>
</svg>
