<?xml version="1.0" encoding="UTF-8" standalone="no"?><!DOCTYPE svg PUBLIC "-//W3C//DTD SVG 1.1//EN" "http://www.w3.org/Graphics/SVG/1.1/DTD/svg11.dtd"><svg width="100%" height="100%" viewBox="0 0 775 205" version="1.1" xmlns="http://www.w3.org/2000/svg" xmlns:xlink="http://www.w3.org/1999/xlink" xml:space="preserve" xmlns:serif="http://www.serif.com/" style="fill-rule:evenodd;clip-rule:evenodd;stroke-linejoin:round;stroke-miterlimit:1.41421;"><g id="Mid-Zeug" serif:id="Mid Zeug"><rect id="Logo-Text" serif:id="Logo Text" x="198.027" y="64.231" width="451.998" height="98.117" style="fill:#1f2533;fill-opacity:0;"/><clipPath id="_clip1"><rect x="198.027" y="64.231" width="451.998" height="98.117"/></clipPath><g clip-path="url(#_clip1)"><clipPath id="_clip2"><rect id="logo_web-040e86085e8a64847b9a2c10a1875531ebf90a5d9d986cbd080de99c444a48ed" x="130.524" y="64.231" width="512.391" height="107.174"/></clipPath><g clip-path="url(#_clip2)"><g id="Layer_1-2"><path d="M158.946,134.565l-4.042,-5.149l0.901,-13.246l-16.18,-10.581l0.669,7.865l7.723,8.534l-2.844,21.973c-5.201,-4.389 -6.926,-5.29 -14.649,-7.968c2.574,-10.774 1.287,-11.842 2.368,-25.203c0.696,-19.759 14.829,-30.688 26.054,-31.022" style="fill:#ea3f30;fill-rule:nonzero;"/><path d="M158.753,134.565l4.042,-5.149l-0.901,-13.246l16.167,-10.555l-0.669,7.865l-7.724,8.534l2.806,21.973c5.149,-4.402 6.964,-5.291 14.649,-7.968c-2.574,-10.774 -1.287,-11.842 -2.368,-25.204c-0.696,-19.759 -14.829,-30.687 -26.054,-31.022" style="fill:#fff;fill-rule:nonzero;"/><path d="M245.601,79.137c7.046,0 12.049,1.545 15.009,4.634c2.245,2.405 3.445,5.606 3.334,8.895c-0.01,1.295 -0.134,2.588 -0.373,3.861l-0.837,4.454c-0.449,3.097 -1.817,5.99 -3.926,8.303c-1.948,1.973 -3.664,2.96 -5.149,2.96l-0.09,0.747c2.081,0.18 3.996,1.221 5.278,2.87c1.753,1.814 2.72,4.249 2.69,6.771c-0.009,1.121 -0.134,2.238 -0.373,3.334l-0.554,2.87c-0.752,4.897 -3.277,9.352 -7.092,12.512c-3.742,3.029 -8.946,4.544 -15.614,4.544l-30.893,0l11.765,-66.729l26.825,-0.026Zm-8.341,39.492l-8.804,0l-2.227,12.795l9.178,0c2.418,0.13 4.809,-0.574 6.77,-1.995c1.562,-1.128 2.492,-2.94 2.498,-4.866c0,-3.956 -2.472,-5.934 -7.415,-5.934Zm2.497,-25.024l-6.951,0l-2.407,13.799l6.861,0c5.93,0 8.895,-2.574 8.895,-7.723c0.067,-1.609 -0.518,-3.178 -1.622,-4.351c-1.288,-1.205 -3.015,-1.829 -4.776,-1.725Z" style="fill:#fff;fill-rule:nonzero;"/><path d="M306.487,79.137c7.045,0 12.048,1.545 15.009,4.634c2.271,2.398 3.495,5.606 3.398,8.907c-0.01,1.296 -0.135,2.588 -0.373,3.862l-1.287,7.234c-0.535,3.494 -1.856,6.822 -3.862,9.732c-1.547,2.245 -3.631,4.069 -6.063,5.303l8.431,27.032l-18.729,0l-7.723,-24.934l-5.741,0l-3.862,24.934l-17.84,0l11.765,-66.73l26.877,0.026Zm-5.844,14.455l-6.951,0l-2.394,16.129l6.436,0c3.278,0 5.625,-0.789 7.041,-2.368c1.479,-1.739 2.243,-3.976 2.137,-6.256c0.025,-4.995 -2.06,-7.492 -6.256,-7.492l-0.013,-0.013Z" style="fill:#fff;fill-rule:nonzero;"/><path d="M361.631,145.866l0.554,-14.545l-15.408,0l-4.544,14.545l-17.764,0l23.814,-66.729l30.584,0l0.374,66.729l-17.61,0Zm-3.861,-50.51l-7.26,23.543l12.138,0l1.017,-23.543l-5.895,0Z" style="fill:#fff;fill-rule:nonzero;"/><path d="M446.897,79.137l-1.571,50.51l2.137,0l16.129,-50.51l18.163,0l-22.9,66.729l-27.804,0l2.497,-42.723l-12.421,42.723l-27.804,0l0.643,-66.729l18.163,0l-1.673,50.51l2.136,0l16.219,-50.51l18.086,0Z" style="fill:#fff;fill-rule:nonzero;"/><path d="M521.324,145.866l-42.26,0l11.766,-66.729l16.733,0l-9.177,52.274l25.577,0l-2.639,14.455Z" style="fill:#fff;fill-rule:nonzero;"/><path d="M575.258,145.866l-46.52,0l11.765,-66.729l46.521,0l-2.575,14.455l-29.851,0l-2.136,12.512l24.65,0l-2.575,14.456l-24.663,0l-1.853,10.838l29.837,0l-2.6,14.468Z" style="fill:#fff;fill-rule:nonzero;"/><path d="M624.572,79.137c7.045,0 12.048,1.545 15.009,4.634c2.245,2.405 3.445,5.606 3.334,8.895c-0.01,1.295 -0.135,2.588 -0.374,3.861l-1.287,7.234c-0.534,3.494 -1.855,6.822 -3.862,9.732c-1.554,2.237 -3.643,4.051 -6.075,5.277l8.431,27.032l-18.703,0l-7.724,-24.934l-5.741,0l-3.861,24.934l-17.803,0l11.766,-66.73l26.89,0.065Zm-5.844,14.455l-6.951,0l-2.407,16.129l6.436,0c3.278,0 5.625,-0.789 7.041,-2.368c1.478,-1.739 2.243,-3.976 2.137,-6.256c0.034,-4.995 -2.051,-7.492 -6.256,-7.492l0,-0.013Z" style="fill:#fff;fill-rule:nonzero;"/></g></g></g><rect id="Logo" x="28.185" y="0" width="180.139" height="188.656" style="fill:#1f2533;fill-opacity:0;"/><clipPath id="_clip3"><rect x="28.185" y="0" width="180.139" height="188.656"/></clipPath><g clip-path="url(#_clip3)"><g id="Layer_1-21" serif:id="Layer_1-2"><path d="M119.418,138.432l-8.928,-11.374l1.99,-29.26l-35.743,-23.374l1.479,17.374l17.061,18.853l-6.284,48.539c-11.488,-9.697 -15.299,-11.687 -32.36,-17.602c5.687,-23.8 2.844,-26.16 5.232,-55.676c1.536,-43.648 32.758,-67.789 57.553,-68.529" style="fill:#ea3f30;fill-rule:nonzero;"/><path d="M118.992,138.432l8.928,-11.374l-1.99,-29.26l35.715,-23.317l-1.479,17.374l-17.061,18.853l6.199,48.539c11.374,-9.725 15.383,-11.687 32.359,-17.602c-5.687,-23.8 -2.844,-26.16 -5.232,-55.676c-1.536,-43.648 -32.757,-67.789 -57.553,-68.529" style="fill:#fff;fill-rule:nonzero;"/><path d="M310.844,15.99c15.564,0 26.616,3.412 33.156,10.237c4.959,5.313 7.61,12.385 7.364,19.648c-0.021,2.863 -0.297,5.718 -0.824,8.531l-1.849,9.839c-0.993,6.841 -4.015,13.231 -8.672,18.34c-4.303,4.36 -8.095,6.54 -11.374,6.54l-0.199,1.65c4.597,0.398 8.826,2.698 11.658,6.341c3.873,4.006 6.01,9.385 5.943,14.957c-0.02,2.476 -0.296,4.944 -0.825,7.364l-1.222,6.341c-1.662,10.818 -7.24,20.658 -15.668,27.639c-8.265,6.692 -19.763,10.038 -34.492,10.038l-68.245,0l25.99,-147.408l59.259,-0.057Zm-18.426,87.239l-19.45,0l-4.919,28.265l20.275,0c5.342,0.288 10.624,-1.268 14.956,-4.408c3.451,-2.491 5.504,-6.492 5.517,-10.748c0,-8.739 -5.46,-13.109 -16.379,-13.109Zm5.517,-55.278l-15.355,0l-5.318,30.483l15.156,0c13.099,0 19.649,-5.687 19.649,-17.061c0.147,-3.554 -1.145,-7.021 -3.583,-9.611c-2.844,-2.661 -6.661,-4.04 -10.549,-3.811Z" style="fill:#fff;fill-rule:nonzero;"/><path d="M445.343,15.99c15.563,0 26.615,3.412 33.155,10.237c5.018,5.297 7.722,12.383 7.507,19.677c-0.022,2.862 -0.298,5.717 -0.824,8.53l-2.844,15.981c-1.182,7.718 -4.098,15.069 -8.531,21.497c-3.417,4.961 -8.021,8.989 -13.393,11.715l18.626,59.714l-41.374,0l-17.061,-55.079l-12.682,0l-8.531,55.079l-39.411,0l25.99,-147.408l59.373,0.057Zm-12.91,31.933l-15.355,0l-5.289,35.629l14.218,0c7.241,0 12.426,-1.744 15.554,-5.232c3.266,-3.841 4.954,-8.783 4.72,-13.819c0.057,-11.033 -4.549,-16.55 -13.819,-16.55l-0.029,-0.028Z" style="fill:#fff;fill-rule:nonzero;"/><path d="M567.159,163.398l1.223,-32.132l-34.037,0l-10.038,32.132l-39.24,0l52.605,-147.408l67.562,0l0.825,147.408l-38.9,0Zm-8.53,-111.58l-16.038,52.008l26.815,0l2.246,-52.008l-13.023,0Z" style="fill:#fff;fill-rule:nonzero;"/><path d="M755.514,15.99l-3.469,111.58l4.72,0l35.63,-111.58l40.122,0l-50.586,147.408l-61.421,0l5.517,-94.376l-27.44,94.376l-61.42,0l1.422,-147.408l40.122,0l-3.697,111.58l4.72,0l35.829,-111.58l39.951,0Z" style="fill:#fff;fill-rule:nonzero;"/></g></g><text x="186.262px" y="63.887px" style="font-family:'Calibri', sans-serif;font-size:37.049px;fill:#81828b;">W<tspan x="217.866px 236.299px 244.802px 260.16px 279.698px " y="63.887px 63.887px 63.887px 63.887px 63.887px ">elcom</tspan>e t<tspan x="348.151px " y="63.887px ">o</tspan></text><text x="-1.284px" y="198.018px" style="font-family:'Calibri', sans-serif;font-size:37.049px;fill:#81828b;">Self<tspan x="52.986px 64.328px " y="198.018px 198.018px ">-h</tspan>os<tspan x="117.405px 129.417px 147.851px " y="198.018px 198.018px 198.018px ">ted</tspan> videog<tspan x="275.115px 292.861px " y="198.018px 198.018px ">am</tspan>e t<tspan x="361.314px 380.851px " y="198.018px 198.018px ">ou</tspan>rnamen<tspan x="517.594px 530.004px " y="198.018px 198.018px ">ts</tspan> and challeng<tspan x="742.834px 761.268px " y="198.018px 198.018px ">es</tspan></text></g></svg>